<svg width="15" height="16" viewBox="0 0 15 16" fill="none" xmlns="http://www.w3.org/2000/svg">
<g clip-path="url(#clip0)">
<path d="M6.52191 3.1084H1.95669C1.61076 3.1084 1.27899 3.24582 1.03438 3.49043C0.789766 3.73505 0.652344 4.06681 0.652344 4.41275V13.5432C0.652344 13.8891 0.789766 14.2209 1.03438 14.4655C1.27899 14.7101 1.61076 14.8475 1.95669 14.8475H11.0871C11.4331 14.8475 11.7648 14.7101 12.0094 14.4655C12.2541 14.2209 12.3915 13.8891 12.3915 13.5432V8.97796" stroke="black" stroke-linecap="round" stroke-linejoin="round"/>
<path d="M11.4133 2.13079C11.6727 1.87134 12.0246 1.72559 12.3915 1.72559C12.7584 1.72559 13.1103 1.87134 13.3698 2.13079C13.6292 2.39025 13.775 2.74214 13.775 3.10906C13.775 3.47597 13.6292 3.82787 13.3698 4.08732L7.17412 10.283L4.56543 10.9351L5.2176 8.32645L11.4133 2.13079Z" stroke="black" stroke-linecap="round" stroke-linejoin="round"/>
</g>
<defs>
<clipPath id="clip0">
<rect width="15" height="15" fill="white" transform="translate(0 0.5)"/>
</clipPath>
</defs>
</svg>
