<svg width="24" height="24" viewBox="0 0 24 24" fill="none" xmlns="http://www.w3.org/2000/svg">
<path d="M9.04163 0C4.04807 0 0 4.04807 0 9.04163C0 14.0352 4.04807 18.0833 9.04163 18.0833C11.2478 18.0833 13.2692 17.2934 14.8386 15.9804L21.8717 23.0135C21.9467 23.0885 22.0357 23.148 22.1336 23.1885C22.2316 23.2291 22.3366 23.25 22.4426 23.25C22.5486 23.25 22.6536 23.2291 22.7516 23.1885C22.8495 23.148 22.9385 23.0885 23.0135 23.0135C23.0885 22.9385 23.148 22.8495 23.1885 22.7516C23.2291 22.6536 23.25 22.5486 23.25 22.4426C23.25 22.3366 23.2291 22.2316 23.1885 22.1336C23.148 22.0357 23.0885 21.9467 23.0135 21.8717L15.9804 14.8386C17.3417 13.214 18.0864 11.1612 18.0833 9.04163C18.0833 4.04807 14.0352 0 9.04163 0ZM1.61458 9.04163C1.61458 4.93996 4.93996 1.61458 9.04163 1.61458C13.1433 1.61458 16.4687 4.93996 16.4687 9.04163C16.4687 13.1433 13.1433 16.4687 9.04163 16.4687C4.93996 16.4687 1.61458 13.1433 1.61458 9.04163Z" fill="#979797"/>
</svg>
