<svg width="32" height="25" viewBox="0 0 32 25" fill="none" xmlns="http://www.w3.org/2000/svg">
<path d="M12.5 7.8125C12.5 6.9837 12.8292 6.18884 13.4153 5.60279C14.0013 5.01674 14.7962 4.6875 15.625 4.6875H21.875C22.7038 4.6875 23.4987 5.01674 24.0847 5.60279C24.6708 6.18884 25 6.9837 25 7.8125V9.375C25 10.2038 24.6708 10.9987 24.0847 11.5847C23.4987 12.1708 22.7038 12.5 21.875 12.5H15.625C14.7962 12.5 14.0013 12.1708 13.4153 11.5847C12.8292 10.9987 12.5 10.2038 12.5 9.375V7.8125ZM15.625 7.03125C15.4178 7.03125 15.2191 7.11356 15.0726 7.26007C14.9261 7.40658 14.8438 7.6053 14.8438 7.8125V9.375C14.8438 9.5822 14.9261 9.78091 15.0726 9.92743C15.2191 10.0739 15.4178 10.1562 15.625 10.1562H21.875C22.0822 10.1562 22.2809 10.0739 22.4274 9.92743C22.5739 9.78091 22.6562 9.5822 22.6562 9.375V7.8125C22.6562 7.6053 22.5739 7.40658 22.4274 7.26007C22.2809 7.11356 22.0822 7.03125 21.875 7.03125H15.625Z" fill="#041D42"/>
<path d="M3.125 0C2.2962 0 1.50134 0.32924 0.915291 0.915291C0.32924 1.50134 0 2.2962 0 3.125V21.875C0 22.7038 0.32924 23.4987 0.915291 24.0847C1.50134 24.6708 2.2962 25 3.125 25H28.125C28.9538 25 29.7487 24.6708 30.3347 24.0847C30.9208 23.4987 31.25 22.7038 31.25 21.875V3.125C31.25 2.2962 30.9208 1.50134 30.3347 0.915291C29.7487 0.32924 28.9538 0 28.125 0H3.125ZM28.125 2.34375C28.3322 2.34375 28.5309 2.42606 28.6774 2.57257C28.8239 2.71909 28.9062 2.9178 28.9062 3.125V21.875C28.9062 22.0822 28.8239 22.2809 28.6774 22.4274C28.5309 22.5739 28.3322 22.6562 28.125 22.6562H8.59375V2.34375H28.125ZM3.125 2.34375H6.25V22.6562H3.125C2.9178 22.6562 2.71909 22.5739 2.57257 22.4274C2.42606 22.2809 2.34375 22.0822 2.34375 21.875V3.125C2.34375 2.9178 2.42606 2.71909 2.57257 2.57257C2.71909 2.42606 2.9178 2.34375 3.125 2.34375Z" fill="#041D42"/>
</svg>
