<svg width="78" height="78" viewBox="0 0 78 78" fill="none" xmlns="http://www.w3.org/2000/svg">
<path d="M68.1667 1.5H9.83333C5.23096 1.5 1.5 5.23096 1.5 9.83333V68.1667C1.5 72.769 5.23096 76.5 9.83333 76.5H68.1667C72.769 76.5 76.5 72.769 76.5 68.1667V9.83333C76.5 5.23096 72.769 1.5 68.1667 1.5Z" stroke="#979797" stroke-width="2" stroke-linecap="round" stroke-linejoin="round"/>
<path d="M24.4166 30.6666C27.8684 30.6666 30.6666 27.8684 30.6666 24.4166C30.6666 20.9648 27.8684 18.1666 24.4166 18.1666C20.9648 18.1666 18.1666 20.9648 18.1666 24.4166C18.1666 27.8684 20.9648 30.6666 24.4166 30.6666Z" stroke="#979797" stroke-width="2" stroke-linecap="round" stroke-linejoin="round"/>
<path d="M76.5 51.5L55.6667 30.6666L9.83337 76.5" stroke="#979797" stroke-width="2" stroke-linecap="round" stroke-linejoin="round"/>
</svg>
