<svg width="234" height="31" viewBox="0 0 234 31" fill="none" xmlns="http://www.w3.org/2000/svg">
<path d="M6.735 30.165C6.19833 30.165 5.76667 30.06 5.44 29.85C5.11333 29.6633 4.845 29.3133 4.635 28.8L1.205 20.225C0.995 19.6883 0.808333 19.2333 0.645 18.86C0.505 18.4633 0.388333 18.09 0.295 17.74C0.201667 17.3667 0.131667 16.9817 0.085 16.585C0.0616667 16.165 0.05 15.675 0.05 15.115V5.875C0.05 5.57167 0.085 5.315 0.155 5.105C0.248333 4.895 0.376667 4.72 0.54 4.58L5.055 0.764999C5.17167 0.671666 5.32333 0.601665 5.51 0.554998C5.72 0.484999 5.94167 0.449999 6.175 0.449999H11.74C12.3 0.449999 12.72 0.589999 13 0.869998C13.3033 1.12667 13.455 1.52333 13.455 2.06V11.72C13.455 11.9533 13.4783 12.175 13.525 12.385C13.5717 12.595 13.63 12.8167 13.7 13.05L13.805 13.295V5.875C13.805 5.57167 13.84 5.315 13.91 5.105C14.0033 4.895 14.1317 4.72 14.295 4.58L18.81 0.764999C18.9267 0.671666 19.0783 0.601665 19.265 0.554998C19.475 0.484999 19.6967 0.449999 19.93 0.449999H25.425C26.0083 0.449999 26.4167 0.578332 26.65 0.834999C26.9067 1.09167 27.035 1.5 27.035 2.06V11.3C27.035 11.86 27.0117 12.35 26.965 12.77C26.9417 13.1667 26.8833 13.5517 26.79 13.925C26.6967 14.275 26.5683 14.6483 26.405 15.045C26.265 15.4183 26.09 15.8733 25.88 16.41L22.45 24.985C22.38 25.195 22.2867 25.3817 22.17 25.545C22.0533 25.7083 21.9367 25.8367 21.82 25.93L17.305 29.675C17.1183 29.8383 16.8967 29.955 16.64 30.025C16.4067 30.1183 16.1383 30.165 15.835 30.165H6.735ZM20.35 26C20.7933 26 21.155 25.9183 21.435 25.755C21.7383 25.5917 21.9717 25.2883 22.135 24.845L25.565 16.27C25.775 15.7567 25.95 15.3133 26.09 14.94C26.23 14.5433 26.3467 14.17 26.44 13.82C26.5333 13.47 26.5917 13.1083 26.615 12.735C26.6617 12.3383 26.685 11.86 26.685 11.3V2.06C26.685 1.61667 26.58 1.30167 26.37 1.115C26.1833 0.904999 25.8683 0.799999 25.425 0.799999H19.93C19.4867 0.799999 19.16 0.904999 18.95 1.115C18.7633 1.30167 18.67 1.61667 18.67 2.06V11.685C18.67 11.9183 18.6467 12.1517 18.6 12.385C18.5533 12.6183 18.4833 12.8633 18.39 13.12L16.745 18.055C16.675 18.2883 16.5933 18.4517 16.5 18.545C16.4067 18.615 16.2667 18.65 16.08 18.65H15.695C15.5083 18.65 15.3683 18.615 15.275 18.545C15.1817 18.4517 15.1 18.2883 15.03 18.055L13.385 13.155C13.2917 12.8983 13.2217 12.6533 13.175 12.42C13.1283 12.1867 13.105 11.9533 13.105 11.72V2.06C13.105 1.61667 12.9883 1.30167 12.755 1.115C12.5217 0.904999 12.1833 0.799999 11.74 0.799999H6.175C5.73167 0.799999 5.405 0.904999 5.195 1.115C5.00833 1.30167 4.915 1.61667 4.915 2.06V11.3C4.915 11.86 4.92667 12.3383 4.95 12.735C4.99667 13.1083 5.06667 13.47 5.16 13.82C5.25333 14.17 5.37 14.5433 5.51 14.94C5.65 15.3133 5.825 15.7567 6.035 16.27L9.465 24.845C9.62833 25.2883 9.85 25.5917 10.13 25.755C10.4333 25.9183 10.8067 26 11.25 26H20.35ZM8.87 3.95H9.22V11.51C9.22 12.1167 9.26667 12.7 9.36 13.26C9.45333 13.7967 9.59333 14.2983 9.78 14.765L12.09 20.365C12.3233 20.9717 12.58 21.485 12.86 21.905C13.1633 22.3017 13.6417 22.5 14.295 22.5H17.375C18.0283 22.5 18.495 22.3017 18.775 21.905C19.0783 21.485 19.3467 20.9717 19.58 20.365L21.89 14.765C22.0767 14.2983 22.2167 13.7967 22.31 13.26C22.4033 12.7 22.45 12.1167 22.45 11.51V3.95H22.8V11.51C22.8 12.1633 22.7533 12.77 22.66 13.33C22.59 13.8667 22.45 14.3917 22.24 14.905L19.93 20.505C19.65 21.1817 19.335 21.7417 18.985 22.185C18.635 22.6283 18.0983 22.85 17.375 22.85H14.295C13.5717 22.85 13.035 22.6283 12.685 22.185C12.335 21.7417 12.02 21.1817 11.74 20.505L9.43 14.905C9.22 14.3917 9.06833 13.8667 8.975 13.33C8.905 12.77 8.87 12.1633 8.87 11.51V3.95ZM37.6859 15.395V16.48H51.3359V15.395C51.3359 14.765 51.2776 14.1817 51.1609 13.645C51.0676 13.1083 50.9393 12.6067 50.7759 12.14L48.3609 6.435C48.1043 5.82833 47.8359 5.32667 47.5559 4.93C47.2759 4.51 46.8093 4.3 46.1559 4.3H42.7259C42.0259 4.3 41.5359 4.51 41.2559 4.93C40.9759 5.32667 40.7193 5.81667 40.4859 6.4L38.2459 12.14C38.0826 12.6067 37.9426 13.1083 37.8259 13.645C37.7326 14.1817 37.6859 14.765 37.6859 15.395ZM43.2859 8.15C43.3793 7.94 43.4726 7.78833 43.5659 7.695C43.6826 7.60167 43.8109 7.555 43.9509 7.555H44.8259C44.9659 7.555 45.0826 7.60167 45.1759 7.695C45.2926 7.78833 45.3976 7.94 45.4909 8.15L47.1359 13.47H41.6409L43.2859 8.15ZM51.3359 22.85V16.83H37.6859V22.85H37.3359V15.395C37.3359 14.7417 37.3826 14.1467 37.4759 13.61C37.5926 13.05 37.7443 12.5133 37.9309 12L40.1709 6.26C40.4276 5.60667 40.7193 5.05833 41.0459 4.615C41.3726 4.17167 41.9326 3.95 42.7259 3.95H46.1559C46.9259 3.95 47.4626 4.17167 47.7659 4.615C48.0926 5.05833 48.3959 5.61833 48.6759 6.295L51.0909 12C51.2776 12.5133 51.4176 13.05 51.5109 13.61C51.6276 14.1467 51.6859 14.7417 51.6859 15.395V22.85H51.3359ZM41.2909 24.74V19.84H47.4859V24.74C47.4859 25.1833 47.5909 25.51 47.8009 25.72C48.0343 25.9067 48.3843 26 48.8509 26H54.1359C54.5793 26 54.8943 25.9067 55.0809 25.72C55.2909 25.51 55.3959 25.1833 55.3959 24.74V15.5C55.3959 14.8 55.2793 13.995 55.0459 13.085C54.8359 12.175 54.4976 11.1133 54.0309 9.9L50.9859 1.955C50.8459 1.55833 50.6243 1.26667 50.3209 1.08C50.0409 0.893333 49.6793 0.799999 49.2359 0.799999H39.8209C39.3543 0.799999 38.9693 0.893333 38.6659 1.08C38.3859 1.26667 38.1759 1.55833 38.0359 1.955L34.9909 9.9C34.5243 11.1133 34.1743 12.175 33.9409 13.085C33.7309 13.995 33.6259 14.8 33.6259 15.5V24.74C33.6259 25.1833 33.7193 25.51 33.9059 25.72C34.1159 25.9067 34.4426 26 34.8859 26H40.0309C40.4743 26 40.7893 25.9067 40.9759 25.72C41.1859 25.51 41.2909 25.1833 41.2909 24.74ZM36.6009 29.815C36.5076 29.9083 36.3559 29.99 36.1459 30.06C35.9593 30.13 35.7493 30.165 35.5159 30.165H30.3709C29.8109 30.165 29.4026 30.0367 29.1459 29.78C28.8893 29.5233 28.7609 29.115 28.7609 28.555V19.315C28.7609 18.5917 28.8659 17.775 29.0759 16.865C29.3093 15.9317 29.6709 14.835 30.1609 13.575L33.1709 5.665C33.2409 5.455 33.3226 5.28 33.4159 5.14C33.5326 4.97667 33.6493 4.83667 33.7659 4.72L33.8009 4.685L38.2809 0.939999C38.4676 0.776665 38.6893 0.659999 38.9459 0.59C39.2026 0.496666 39.4943 0.449999 39.8209 0.449999H49.2359C49.7726 0.449999 50.2043 0.566666 50.5309 0.799999C50.8809 1.01 51.1376 1.34833 51.3009 1.815L54.3459 9.76C54.8359 11.02 55.1859 12.1167 55.3959 13.05C55.6293 13.96 55.7459 14.7767 55.7459 15.5V24.74C55.7459 25.0433 55.6993 25.3 55.6059 25.51C55.5359 25.72 55.4193 25.895 55.2559 26.035L50.7059 29.815C50.6126 29.9083 50.4609 29.99 50.2509 30.06C50.0643 30.13 49.8543 30.165 49.6209 30.165H44.3359C43.7526 30.165 43.3209 30.025 43.0409 29.745C42.7609 29.4883 42.6209 29.0917 42.6209 28.555V24.005H41.6409V24.74C41.6409 25.0433 41.5943 25.3 41.5009 25.51C41.4309 25.72 41.3143 25.895 41.1509 26.035L36.6009 29.815ZM77.7637 30.165H59.9487C59.3887 30.165 58.9803 30.0367 58.7237 29.78C58.467 29.5233 58.3387 29.115 58.3387 28.555V5.875C58.3387 5.57167 58.3737 5.315 58.4437 5.105C58.537 4.895 58.6653 4.72 58.8287 4.58L63.3437 0.764999C63.4603 0.671666 63.612 0.601665 63.7987 0.554998C64.0087 0.484999 64.2303 0.449999 64.4637 0.449999H69.8887C70.4487 0.449999 70.857 0.578332 71.1137 0.834999C71.3703 1.09167 71.4987 1.5 71.4987 2.06V16.305L71.5687 16.235L76.0837 12.42C76.2003 12.3267 76.352 12.2567 76.5387 12.21C76.7487 12.14 76.9703 12.105 77.2037 12.105H82.2787C82.8387 12.105 83.247 12.2333 83.5037 12.49C83.7603 12.7467 83.8887 13.155 83.8887 13.715V24.74C83.8887 25.0433 83.842 25.3 83.7487 25.51C83.6787 25.72 83.562 25.895 83.3987 26.035L78.8487 29.815C78.7553 29.9083 78.6037 29.99 78.3937 30.06C78.207 30.13 77.997 30.165 77.7637 30.165ZM82.2787 26C82.722 26 83.037 25.9067 83.2237 25.72C83.4337 25.51 83.5387 25.1833 83.5387 24.74V13.715C83.5387 13.2717 83.4337 12.9567 83.2237 12.77C83.037 12.56 82.722 12.455 82.2787 12.455H77.2037C76.7603 12.455 76.4337 12.56 76.2237 12.77C76.037 12.9567 75.9437 13.2717 75.9437 13.715V19.385H71.1487V2.06C71.1487 1.61667 71.0437 1.30167 70.8337 1.115C70.647 0.904999 70.332 0.799999 69.8887 0.799999H64.4637C64.0203 0.799999 63.6937 0.904999 63.4837 1.115C63.297 1.30167 63.2037 1.61667 63.2037 2.06V24.74C63.2037 25.1833 63.297 25.51 63.4837 25.72C63.6937 25.9067 64.0203 26 64.4637 26H82.2787ZM67.0187 22.85V3.95H67.3687V22.5H79.5487V15.605H79.8987V22.85H67.0187ZM94.5609 15.395V16.48H108.211V15.395C108.211 14.765 108.153 14.1817 108.036 13.645C107.943 13.1083 107.814 12.6067 107.651 12.14L105.236 6.435C104.979 5.82833 104.711 5.32667 104.431 4.93C104.151 4.51 103.684 4.3 103.031 4.3H99.6009C98.9009 4.3 98.4109 4.51 98.1309 4.93C97.8509 5.32667 97.5943 5.81667 97.3609 6.4L95.1209 12.14C94.9576 12.6067 94.8176 13.1083 94.7009 13.645C94.6076 14.1817 94.5609 14.765 94.5609 15.395ZM100.161 8.15C100.254 7.94 100.348 7.78833 100.441 7.695C100.558 7.60167 100.686 7.555 100.826 7.555H101.701C101.841 7.555 101.958 7.60167 102.051 7.695C102.168 7.78833 102.273 7.94 102.366 8.15L104.011 13.47H98.5159L100.161 8.15ZM108.211 22.85V16.83H94.5609V22.85H94.2109V15.395C94.2109 14.7417 94.2576 14.1467 94.3509 13.61C94.4676 13.05 94.6193 12.5133 94.8059 12L97.0459 6.26C97.3026 5.60667 97.5943 5.05833 97.9209 4.615C98.2476 4.17167 98.8076 3.95 99.6009 3.95H103.031C103.801 3.95 104.338 4.17167 104.641 4.615C104.968 5.05833 105.271 5.61833 105.551 6.295L107.966 12C108.153 12.5133 108.293 13.05 108.386 13.61C108.503 14.1467 108.561 14.7417 108.561 15.395V22.85H108.211ZM98.1659 24.74V19.84H104.361V24.74C104.361 25.1833 104.466 25.51 104.676 25.72C104.909 25.9067 105.259 26 105.726 26H111.011C111.454 26 111.769 25.9067 111.956 25.72C112.166 25.51 112.271 25.1833 112.271 24.74V15.5C112.271 14.8 112.154 13.995 111.921 13.085C111.711 12.175 111.373 11.1133 110.906 9.9L107.861 1.955C107.721 1.55833 107.499 1.26667 107.196 1.08C106.916 0.893333 106.554 0.799999 106.111 0.799999H96.6959C96.2293 0.799999 95.8443 0.893333 95.5409 1.08C95.2609 1.26667 95.0509 1.55833 94.9109 1.955L91.8659 9.9C91.3993 11.1133 91.0493 12.175 90.8159 13.085C90.6059 13.995 90.5009 14.8 90.5009 15.5V24.74C90.5009 25.1833 90.5943 25.51 90.7809 25.72C90.9909 25.9067 91.3176 26 91.7609 26H96.9059C97.3493 26 97.6643 25.9067 97.8509 25.72C98.0609 25.51 98.1659 25.1833 98.1659 24.74ZM93.4759 29.815C93.3826 29.9083 93.2309 29.99 93.0209 30.06C92.8343 30.13 92.6243 30.165 92.3909 30.165H87.2459C86.6859 30.165 86.2776 30.0367 86.0209 29.78C85.7643 29.5233 85.6359 29.115 85.6359 28.555V19.315C85.6359 18.5917 85.7409 17.775 85.9509 16.865C86.1843 15.9317 86.5459 14.835 87.0359 13.575L90.0459 5.665C90.1159 5.455 90.1976 5.28 90.2909 5.14C90.4076 4.97667 90.5243 4.83667 90.6409 4.72L90.6759 4.685L95.1559 0.939999C95.3426 0.776665 95.5643 0.659999 95.8209 0.59C96.0776 0.496666 96.3693 0.449999 96.6959 0.449999H106.111C106.648 0.449999 107.079 0.566666 107.406 0.799999C107.756 1.01 108.013 1.34833 108.176 1.815L111.221 9.76C111.711 11.02 112.061 12.1167 112.271 13.05C112.504 13.96 112.621 14.7767 112.621 15.5V24.74C112.621 25.0433 112.574 25.3 112.481 25.51C112.411 25.72 112.294 25.895 112.131 26.035L107.581 29.815C107.488 29.9083 107.336 29.99 107.126 30.06C106.939 30.13 106.729 30.165 106.496 30.165H101.211C100.628 30.165 100.196 30.025 99.9159 29.745C99.6359 29.4883 99.4959 29.0917 99.4959 28.555V24.005H98.5159V24.74C98.5159 25.0433 98.4693 25.3 98.3759 25.51C98.3059 25.72 98.1893 25.895 98.0259 26.035L93.4759 29.815ZM132.399 12.525C132.819 12.525 133.122 12.4317 133.309 12.245C133.495 12.0583 133.787 11.6617 134.184 11.055L138.454 4.545C138.594 4.31167 138.745 4.16 138.909 4.09C139.095 3.99666 139.282 3.95 139.469 3.95H140.064C140.39 3.95 140.624 4.04333 140.764 4.23C140.927 4.39333 141.009 4.66167 141.009 5.035V22.85H140.659V5.035C140.659 4.84833 140.612 4.685 140.519 4.545C140.449 4.38167 140.297 4.3 140.064 4.3H139.539C139.375 4.3 139.235 4.32333 139.119 4.37C139.002 4.41666 138.874 4.55667 138.734 4.79L134.464 11.23C134.044 11.86 133.717 12.2917 133.484 12.525C133.274 12.7583 132.912 12.875 132.399 12.875C131.885 12.875 131.512 12.7583 131.279 12.525C131.069 12.2917 130.754 11.86 130.334 11.23L126.064 4.79C125.924 4.55667 125.784 4.41666 125.644 4.37C125.527 4.32333 125.387 4.3 125.224 4.3H124.699C124.465 4.3 124.314 4.38167 124.244 4.545C124.174 4.685 124.139 4.84833 124.139 5.035V22.85H123.789V5.035C123.789 4.66167 123.859 4.39333 123.999 4.23C124.162 4.04333 124.395 3.95 124.699 3.95H125.294C125.48 3.95 125.667 3.99666 125.854 4.09C126.04 4.16 126.204 4.31167 126.344 4.545L130.614 11.055C131.01 11.6617 131.302 12.0583 131.489 12.245C131.675 12.4317 131.979 12.525 132.399 12.525ZM126.554 26C126.997 26 127.312 25.9067 127.499 25.72C127.709 25.51 127.814 25.1833 127.814 24.74V12.42L129.879 16.235C130.089 16.6317 130.334 16.9233 130.614 17.11C130.917 17.2733 131.29 17.355 131.734 17.355H133.134C133.577 17.355 133.939 17.2733 134.219 17.11C134.522 16.9233 134.779 16.6317 134.989 16.235L137.054 12.42V24.74C137.054 25.1833 137.147 25.51 137.334 25.72C137.544 25.9067 137.87 26 138.314 26H143.704C144.147 26 144.462 25.9067 144.649 25.72C144.859 25.51 144.964 25.1833 144.964 24.74V2.06C144.964 1.61667 144.859 1.30167 144.649 1.115C144.462 0.904999 144.147 0.799999 143.704 0.799999H138.034C137.66 0.799999 137.345 0.881665 137.089 1.045C136.855 1.20833 136.634 1.47667 136.424 1.85L133.309 7.555C133.192 7.765 133.087 7.91667 132.994 8.01C132.924 8.10333 132.819 8.15 132.679 8.15H132.364C132.224 8.15 132.107 8.10333 132.014 8.01C131.944 7.91667 131.85 7.765 131.734 7.555L128.584 1.85C128.374 1.47667 128.14 1.20833 127.884 1.045C127.65 0.881665 127.347 0.799999 126.974 0.799999H121.339C120.895 0.799999 120.569 0.904999 120.359 1.115C120.172 1.30167 120.079 1.61667 120.079 2.06V24.74C120.079 25.1833 120.172 25.51 120.359 25.72C120.569 25.9067 120.895 26 121.339 26H126.554ZM127.674 26.035L123.124 29.815C123.03 29.9083 122.879 29.99 122.669 30.06C122.482 30.13 122.272 30.165 122.039 30.165H116.824C116.264 30.165 115.855 30.0367 115.599 29.78C115.342 29.5233 115.214 29.115 115.214 28.555V5.875C115.214 5.57167 115.249 5.315 115.319 5.105C115.412 4.895 115.54 4.72 115.704 4.58L120.219 0.764999C120.335 0.671666 120.487 0.601665 120.674 0.554998C120.884 0.484999 121.105 0.449999 121.339 0.449999H126.974C127.417 0.449999 127.779 0.543332 128.059 0.729998C128.362 0.916665 128.642 1.23166 128.899 1.675L131.279 6.05L131.594 5.49C131.687 5.32667 131.78 5.175 131.874 5.035C131.99 4.87167 132.107 4.74333 132.224 4.65L136.739 0.869998C136.925 0.729999 137.112 0.624998 137.299 0.554998C137.509 0.484999 137.754 0.449999 138.034 0.449999H143.704C144.264 0.449999 144.672 0.578332 144.929 0.834999C145.185 1.09167 145.314 1.5 145.314 2.06V24.74C145.314 25.0433 145.267 25.3 145.174 25.51C145.104 25.72 144.987 25.895 144.824 26.035L140.274 29.815C140.18 29.9083 140.029 29.99 139.819 30.06C139.632 30.13 139.422 30.165 139.189 30.165H133.799C133.215 30.165 132.795 30.0367 132.539 29.78C132.305 29.5233 132.189 29.115 132.189 28.555V19.315L130.124 21.03C129.937 21.1933 129.715 21.3217 129.459 21.415C129.225 21.485 128.945 21.52 128.619 21.52H128.164V24.74C128.164 25.0433 128.117 25.3 128.024 25.51C127.954 25.72 127.837 25.895 127.674 26.035ZM156.836 15.395V16.48H170.486V15.395C170.486 14.765 170.428 14.1817 170.311 13.645C170.218 13.1083 170.09 12.6067 169.926 12.14L167.511 6.435C167.255 5.82833 166.986 5.32667 166.706 4.93C166.426 4.51 165.96 4.3 165.306 4.3H161.876C161.176 4.3 160.686 4.51 160.406 4.93C160.126 5.32667 159.87 5.81667 159.636 6.4L157.396 12.14C157.233 12.6067 157.093 13.1083 156.976 13.645C156.883 14.1817 156.836 14.765 156.836 15.395ZM162.436 8.15C162.53 7.94 162.623 7.78833 162.716 7.695C162.833 7.60167 162.961 7.555 163.101 7.555H163.976C164.116 7.555 164.233 7.60167 164.326 7.695C164.443 7.78833 164.548 7.94 164.641 8.15L166.286 13.47H160.791L162.436 8.15ZM170.486 22.85V16.83H156.836V22.85H156.486V15.395C156.486 14.7417 156.533 14.1467 156.626 13.61C156.743 13.05 156.895 12.5133 157.081 12L159.321 6.26C159.578 5.60667 159.87 5.05833 160.196 4.615C160.523 4.17167 161.083 3.95 161.876 3.95H165.306C166.076 3.95 166.613 4.17167 166.916 4.615C167.243 5.05833 167.546 5.61833 167.826 6.295L170.241 12C170.428 12.5133 170.568 13.05 170.661 13.61C170.778 14.1467 170.836 14.7417 170.836 15.395V22.85H170.486ZM160.441 24.74V19.84H166.636V24.74C166.636 25.1833 166.741 25.51 166.951 25.72C167.185 25.9067 167.535 26 168.001 26H173.286C173.73 26 174.045 25.9067 174.231 25.72C174.441 25.51 174.546 25.1833 174.546 24.74V15.5C174.546 14.8 174.43 13.995 174.196 13.085C173.986 12.175 173.648 11.1133 173.181 9.9L170.136 1.955C169.996 1.55833 169.775 1.26667 169.471 1.08C169.191 0.893333 168.83 0.799999 168.386 0.799999H158.971C158.505 0.799999 158.12 0.893333 157.816 1.08C157.536 1.26667 157.326 1.55833 157.186 1.955L154.141 9.9C153.675 11.1133 153.325 12.175 153.091 13.085C152.881 13.995 152.776 14.8 152.776 15.5V24.74C152.776 25.1833 152.87 25.51 153.056 25.72C153.266 25.9067 153.593 26 154.036 26H159.181C159.625 26 159.94 25.9067 160.126 25.72C160.336 25.51 160.441 25.1833 160.441 24.74ZM155.751 29.815C155.658 29.9083 155.506 29.99 155.296 30.06C155.11 30.13 154.9 30.165 154.666 30.165H149.521C148.961 30.165 148.553 30.0367 148.296 29.78C148.04 29.5233 147.911 29.115 147.911 28.555V19.315C147.911 18.5917 148.016 17.775 148.226 16.865C148.46 15.9317 148.821 14.835 149.311 13.575L152.321 5.665C152.391 5.455 152.473 5.28 152.566 5.14C152.683 4.97667 152.8 4.83667 152.916 4.72L152.951 4.685L157.431 0.939999C157.618 0.776665 157.84 0.659999 158.096 0.59C158.353 0.496666 158.645 0.449999 158.971 0.449999H168.386C168.923 0.449999 169.355 0.566666 169.681 0.799999C170.031 1.01 170.288 1.34833 170.451 1.815L173.496 9.76C173.986 11.02 174.336 12.1167 174.546 13.05C174.78 13.96 174.896 14.7767 174.896 15.5V24.74C174.896 25.0433 174.85 25.3 174.756 25.51C174.686 25.72 174.57 25.895 174.406 26.035L169.856 29.815C169.763 29.9083 169.611 29.99 169.401 30.06C169.215 30.13 169.005 30.165 168.771 30.165H163.486C162.903 30.165 162.471 30.025 162.191 29.745C161.911 29.4883 161.771 29.0917 161.771 28.555V24.005H160.791V24.74C160.791 25.0433 160.745 25.3 160.651 25.51C160.581 25.72 160.465 25.895 160.301 26.035L155.751 29.815ZM186.519 22.85H186.169V3.95H186.519V13.26H194.114L198.139 3.95H198.524L194.499 13.26H195.934C197.357 13.26 198.419 13.5283 199.119 14.065C199.819 14.6017 200.169 15.4767 200.169 16.69V22.85H199.819V16.69C199.819 15.57 199.492 14.7767 198.839 14.31C198.186 13.8433 197.217 13.61 195.934 13.61H186.519V22.85ZM189.039 26C189.482 26 189.797 25.9067 189.984 25.72C190.194 25.51 190.299 25.1833 190.299 24.74V16.725H194.919C195.292 16.725 195.572 16.83 195.759 17.04C195.946 17.25 196.039 17.5417 196.039 17.915V24.74C196.039 25.1833 196.132 25.51 196.319 25.72C196.529 25.9067 196.856 26 197.299 26H202.689C203.132 26 203.447 25.9067 203.634 25.72C203.844 25.51 203.949 25.1833 203.949 24.74V14.87C203.949 13.47 203.552 12.35 202.759 11.51C201.989 10.6467 200.951 10.18 199.644 10.11L203.214 1.955C203.377 1.58167 203.389 1.30167 203.249 1.115C203.109 0.904999 202.841 0.799999 202.444 0.799999H197.054C196.611 0.799999 196.249 0.893333 195.969 1.08C195.689 1.24333 195.467 1.535 195.304 1.955L191.699 10.11H190.299V2.06C190.299 1.61667 190.194 1.30167 189.984 1.115C189.797 0.904999 189.482 0.799999 189.039 0.799999H183.614C183.171 0.799999 182.844 0.904999 182.634 1.115C182.447 1.30167 182.354 1.61667 182.354 2.06V24.74C182.354 25.1833 182.447 25.51 182.634 25.72C182.844 25.9067 183.171 26 183.614 26H189.039ZM190.159 26.035L185.609 29.815C185.516 29.9083 185.364 29.99 185.154 30.06C184.967 30.13 184.757 30.165 184.524 30.165H179.099C178.539 30.165 178.131 30.0367 177.874 29.78C177.617 29.5233 177.489 29.115 177.489 28.555V5.875C177.489 5.57167 177.524 5.315 177.594 5.105C177.687 4.895 177.816 4.72 177.979 4.58L182.494 0.764999C182.611 0.671666 182.762 0.601665 182.949 0.554998C183.159 0.484999 183.381 0.449999 183.614 0.449999H189.039C189.599 0.449999 190.007 0.578332 190.264 0.834999C190.521 1.09167 190.649 1.5 190.649 2.06V5.245C190.719 5.15167 190.789 5.05833 190.859 4.965C190.929 4.84833 191.011 4.755 191.104 4.685L195.619 0.869998C195.782 0.729999 195.981 0.624998 196.214 0.554998C196.471 0.484999 196.751 0.449999 197.054 0.449999H202.444C203.027 0.449999 203.412 0.601666 203.599 0.905C203.786 1.185 203.762 1.58167 203.529 2.095L200.169 9.795C201.429 9.95833 202.432 10.495 203.179 11.405C203.926 12.315 204.299 13.47 204.299 14.87V24.74C204.299 25.0433 204.252 25.3 204.159 25.51C204.089 25.72 203.972 25.895 203.809 26.035L199.259 29.815C199.166 29.9083 199.014 29.99 198.804 30.06C198.617 30.13 198.407 30.165 198.174 30.165H192.784C192.224 30.165 191.816 30.0367 191.559 29.78C191.302 29.5233 191.174 29.115 191.174 28.555V21.73C191.174 21.4967 191.127 21.31 191.034 21.17C190.941 21.03 190.812 20.9483 190.649 20.925V24.74C190.649 25.0433 190.602 25.3 190.509 25.51C190.439 25.72 190.322 25.895 190.159 26.035ZM215.489 15.395V16.48H229.139V15.395C229.139 14.765 229.08 14.1817 228.964 13.645C228.87 13.1083 228.742 12.6067 228.579 12.14L226.164 6.435C225.907 5.82833 225.639 5.32667 225.359 4.93C225.079 4.51 224.612 4.3 223.959 4.3H220.529C219.829 4.3 219.339 4.51 219.059 4.93C218.779 5.32667 218.522 5.81667 218.289 6.4L216.049 12.14C215.885 12.6067 215.745 13.1083 215.629 13.645C215.535 14.1817 215.489 14.765 215.489 15.395ZM221.089 8.15C221.182 7.94 221.275 7.78833 221.369 7.695C221.485 7.60167 221.614 7.555 221.754 7.555H222.629C222.769 7.555 222.885 7.60167 222.979 7.695C223.095 7.78833 223.2 7.94 223.294 8.15L224.939 13.47H219.444L221.089 8.15ZM229.139 22.85V16.83H215.489V22.85H215.139V15.395C215.139 14.7417 215.185 14.1467 215.279 13.61C215.395 13.05 215.547 12.5133 215.734 12L217.974 6.26C218.23 5.60667 218.522 5.05833 218.849 4.615C219.175 4.17167 219.735 3.95 220.529 3.95H223.959C224.729 3.95 225.265 4.17167 225.569 4.615C225.895 5.05833 226.199 5.61833 226.479 6.295L228.894 12C229.08 12.5133 229.22 13.05 229.314 13.61C229.43 14.1467 229.489 14.7417 229.489 15.395V22.85H229.139ZM219.094 24.74V19.84H225.289V24.74C225.289 25.1833 225.394 25.51 225.604 25.72C225.837 25.9067 226.187 26 226.654 26H231.939C232.382 26 232.697 25.9067 232.884 25.72C233.094 25.51 233.199 25.1833 233.199 24.74V15.5C233.199 14.8 233.082 13.995 232.849 13.085C232.639 12.175 232.3 11.1133 231.834 9.9L228.789 1.955C228.649 1.55833 228.427 1.26667 228.124 1.08C227.844 0.893333 227.482 0.799999 227.039 0.799999H217.624C217.157 0.799999 216.772 0.893333 216.469 1.08C216.189 1.26667 215.979 1.55833 215.839 1.955L212.794 9.9C212.327 11.1133 211.977 12.175 211.744 13.085C211.534 13.995 211.429 14.8 211.429 15.5V24.74C211.429 25.1833 211.522 25.51 211.709 25.72C211.919 25.9067 212.245 26 212.689 26H217.834C218.277 26 218.592 25.9067 218.779 25.72C218.989 25.51 219.094 25.1833 219.094 24.74ZM214.404 29.815C214.31 29.9083 214.159 29.99 213.949 30.06C213.762 30.13 213.552 30.165 213.319 30.165H208.174C207.614 30.165 207.205 30.0367 206.949 29.78C206.692 29.5233 206.564 29.115 206.564 28.555V19.315C206.564 18.5917 206.669 17.775 206.879 16.865C207.112 15.9317 207.474 14.835 207.964 13.575L210.974 5.665C211.044 5.455 211.125 5.28 211.219 5.14C211.335 4.97667 211.452 4.83667 211.569 4.72L211.604 4.685L216.084 0.939999C216.27 0.776665 216.492 0.659999 216.749 0.59C217.005 0.496666 217.297 0.449999 217.624 0.449999H227.039C227.575 0.449999 228.007 0.566666 228.334 0.799999C228.684 1.01 228.94 1.34833 229.104 1.815L232.149 9.76C232.639 11.02 232.989 12.1167 233.199 13.05C233.432 13.96 233.549 14.7767 233.549 15.5V24.74C233.549 25.0433 233.502 25.3 233.409 25.51C233.339 25.72 233.222 25.895 233.059 26.035L228.509 29.815C228.415 29.9083 228.264 29.99 228.054 30.06C227.867 30.13 227.657 30.165 227.424 30.165H222.139C221.555 30.165 221.124 30.025 220.844 29.745C220.564 29.4883 220.424 29.0917 220.424 28.555V24.005H219.444V24.74C219.444 25.0433 219.397 25.3 219.304 25.51C219.234 25.72 219.117 25.895 218.954 26.035L214.404 29.815Z" fill="#041D42"/>
</svg>
