<svg width="276" height="265" viewBox="0 0 276 265" fill="none" xmlns="http://www.w3.org/2000/svg">
<path d="M184 176.667L138 132.5L92 176.667" stroke="black" stroke-width="2" stroke-linecap="round" stroke-linejoin="round"/>
<path d="M138 132.5V231.875" stroke="#84A9E0" stroke-width="7" stroke-linecap="round" stroke-linejoin="round"/>
<path d="M234.49 203.056C245.706 197.185 254.567 187.895 259.673 176.652C264.78 165.408 265.841 152.853 262.69 140.966C259.539 129.079 252.355 118.538 242.271 111.007C232.188 103.476 219.78 99.3833 207.005 99.3752H192.515C189.034 86.4481 182.546 74.4468 173.539 64.2737C164.532 54.1005 153.24 46.0202 140.513 40.6402C127.785 35.2603 113.953 32.7206 100.056 33.2122C86.159 33.7039 72.5589 37.2139 60.2782 43.4786C47.9975 49.7433 37.3556 58.5995 29.1528 69.3814C20.95 80.1634 15.3996 92.5905 12.9189 105.729C10.4383 118.867 11.0919 132.374 14.8306 145.234C18.5694 158.095 25.296 169.974 34.5047 179.979" stroke="#84A9E0" stroke-width="10" stroke-linecap="round" stroke-linejoin="round"/>
<path d="M184 176.667L138 132.5L92 176.667" stroke="#84A9E0" stroke-width="7" stroke-linecap="round" stroke-linejoin="round"/>
</svg>
