<svg width="15" height="13" viewBox="0 0 15 13" fill="none" xmlns="http://www.w3.org/2000/svg">
<path d="M7.80816 2.09857L9.08959 4.68929L9.30316 5.15357L9.76745 5.22321L12.6274 5.63643L10.5939 7.63286L10.2457 7.97179L10.3292 8.43607L10.8167 11.2821L8.25852 9.94036L7.80816 9.75L7.37638 9.9775L4.81816 11.3007L5.28245 8.45464L5.36602 7.99036L5.02245 7.63286L2.97031 5.61321L5.83031 5.2L6.29459 5.13036L6.50816 4.66607L7.80816 2.09857ZM7.80816 0L5.69566 4.28071L0.973877 4.96321L4.39102 8.29679L3.58316 13L7.80816 10.7807L12.0332 13L11.2253 8.29679L14.6425 4.96786L9.92066 4.28071L7.80816 0Z" fill="#FEE5A5"/>
</svg>
