<svg width="22" height="27" viewBox="0 0 22 27" fill="none" xmlns="http://www.w3.org/2000/svg">
<path d="M18.36 14.04C19.2193 14.04 20.0434 14.3814 20.651 14.989C21.2586 15.5966 21.6 16.4207 21.6 17.28V18.36C21.6 22.6174 17.5824 27 10.8 27C4.0176 27 0 22.6174 0 18.36V17.28C0 16.4207 0.341356 15.5966 0.948974 14.989C1.55659 14.3814 2.3807 14.04 3.24 14.04H18.36ZM18.36 16.2H3.24C2.95357 16.2 2.67886 16.3138 2.47633 16.5163C2.27379 16.7189 2.16 16.9936 2.16 17.28V18.36C2.16 21.4661 5.25312 24.84 10.8 24.84C16.3469 24.84 19.44 21.4661 19.44 18.36V17.28C19.44 16.9936 19.3262 16.7189 19.1237 16.5163C18.9211 16.3138 18.6464 16.2 18.36 16.2ZM10.8 0C12.3754 0 13.8862 0.62582 15.0002 1.73979C16.1142 2.85375 16.74 4.36461 16.74 5.94C16.74 7.51539 16.1142 9.02625 15.0002 10.1402C13.8862 11.2542 12.3754 11.88 10.8 11.88C9.22461 11.88 7.71375 11.2542 6.59979 10.1402C5.48582 9.02625 4.86 7.51539 4.86 5.94C4.86 4.36461 5.48582 2.85375 6.59979 1.73979C7.71375 0.62582 9.22461 0 10.8 0ZM10.8 2.16C9.79748 2.16 8.83602 2.55825 8.12714 3.26714C7.41825 3.97602 7.02 4.93748 7.02 5.94C7.02 6.94252 7.41825 7.90398 8.12714 8.61286C8.83602 9.32175 9.79748 9.72 10.8 9.72C11.8025 9.72 12.764 9.32175 13.4729 8.61286C14.1818 7.90398 14.58 6.94252 14.58 5.94C14.58 4.93748 14.1818 3.97602 13.4729 3.26714C12.764 2.55825 11.8025 2.16 10.8 2.16Z" fill="#041D42"/>
</svg>
