<svg width="28" height="27" viewBox="0 0 28 27" fill="none" xmlns="http://www.w3.org/2000/svg">
<path d="M13.1495 0C12.9259 0 12.7114 0.0888472 12.5532 0.246997C12.3951 0.405146 12.3062 0.619643 12.3062 0.8433C12.3062 1.06696 12.3951 1.28145 12.5532 1.4396C12.7114 1.59775 12.9259 1.6866 13.1495 1.6866H19.0526V4.83886C19.0526 6.80374 17.0827 8.43975 14.8361 8.43975C14.6125 8.43975 14.398 8.52859 14.2398 8.68674C14.0817 8.84489 13.9928 9.05939 13.9928 9.28305C13.9928 9.5067 14.0817 9.7212 14.2398 9.87935C14.398 10.0375 14.6125 10.1263 14.8361 10.1263C17.7202 10.1263 20.7392 8.0046 20.7392 4.83886V0.8433C20.7392 0.619643 20.6504 0.405146 20.4922 0.246997C20.3341 0.0888472 20.1196 0 19.8959 0H13.1495Z" fill="#041D42"/>
<path d="M10.5555 5.58447C10.4915 5.43083 10.3834 5.29958 10.2449 5.20726C10.1064 5.11494 9.94362 5.06567 9.77716 5.06567C9.6107 5.06567 9.44796 5.11494 9.30945 5.20726C9.17094 5.29958 9.06285 5.43083 8.99879 5.58447L0.565793 25.8237C0.479685 26.0301 0.479109 26.2623 0.564194 26.4692C0.649278 26.676 0.813053 26.8406 1.01949 26.9267C1.22592 27.0128 1.45811 27.0134 1.66497 26.9283C1.87183 26.8432 2.03642 26.6794 2.12252 26.473L4.71483 20.2495H14.8361L17.4318 26.4814C17.5179 26.6879 17.6825 26.8517 17.8893 26.9367C18.0962 27.0218 18.3284 27.0212 18.5348 26.9351C18.7413 26.849 18.905 26.6844 18.9901 26.4776C19.0752 26.2707 19.0746 26.0385 18.9885 25.8321L16.1854 19.1026C16.18 19.0901 16.1744 19.0777 16.1685 19.0655L10.5572 5.58447H10.5555ZM14.1345 18.5645H5.41645L9.77631 8.10257L14.1345 18.5645Z" fill="#041D42"/>
<path d="M23.2708 0C23.4945 0 23.709 0.0888472 23.8671 0.246997C24.0253 0.405146 24.1141 0.619643 24.1141 0.8433V6.75483H26.6423C26.866 6.75483 27.0805 6.84368 27.2386 7.00183C27.3968 7.15998 27.4856 7.37448 27.4856 7.59813C27.4856 7.82179 27.3968 8.03629 27.2386 8.19444C27.0805 8.35258 26.866 8.44143 26.6423 8.44143H24.1124V19.3959C24.1124 19.6196 24.0236 19.8341 23.8654 19.9922C23.7073 20.1504 23.4928 20.2392 23.2691 20.2392C23.0455 20.2392 22.831 20.1504 22.6728 19.9922C22.5147 19.8341 22.4258 19.6196 22.4258 19.3959V0.8433C22.4258 0.619643 22.5147 0.405146 22.6728 0.246997C22.831 0.0888472 23.0455 0 23.2691 0H23.2708Z" fill="#041D42"/>
</svg>
