<svg width="21" height="27" viewBox="0 0 21 27" fill="none" xmlns="http://www.w3.org/2000/svg">
<path d="M10.125 0.843752C9.49822 0.373668 8.75292 0.0874088 7.97262 0.0170487C7.19231 -0.0533115 6.40783 0.0950077 5.70707 0.445387C5.00631 0.795766 4.41696 1.33436 4.00507 2.00082C3.59317 2.66728 3.375 3.43528 3.375 4.21875V6.75H1.6875C1.23995 6.75 0.810725 6.92779 0.494258 7.24426C0.17779 7.56073 0 7.98995 0 8.4375V21.9375C0 23.2802 0.533369 24.5678 1.48277 25.5172C2.43217 26.4666 3.71984 27 5.0625 27H16.0312C17.1501 27 18.2232 26.5555 19.0144 25.7644C19.8055 24.9732 20.25 23.9001 20.25 22.7812V8.4375C20.25 7.98995 20.0722 7.56073 19.7557 7.24426C19.4393 6.92779 19.0101 6.75 18.5625 6.75H16.875V4.21875C16.875 3.43528 16.6568 2.66728 16.2449 2.00082C15.833 1.33436 15.2437 0.795766 14.5429 0.445387C13.8422 0.0950077 13.0577 -0.0533115 12.2774 0.0170487C11.4971 0.0874088 10.7518 0.373668 10.125 0.843752ZM5.0625 4.21875C5.0625 3.54742 5.32918 2.90359 5.80389 2.42889C6.27859 1.95419 6.92242 1.6875 7.59375 1.6875C8.26508 1.6875 8.90891 1.95419 9.38361 2.42889C9.85832 2.90359 10.125 3.54742 10.125 4.21875V6.75H5.0625V4.21875ZM11.2506 2.11275C11.6318 1.85819 12.075 1.71192 12.5328 1.68957C12.9907 1.66722 13.446 1.76962 13.8502 1.98584C14.2544 2.20206 14.5923 2.52398 14.8278 2.91725C15.0634 3.31051 15.1877 3.76035 15.1875 4.21875V6.75H11.8125V4.21875C11.8125 3.45263 11.6083 2.73375 11.2506 2.11275ZM5.0625 25.3125C4.16739 25.3125 3.30895 24.9569 2.67601 24.324C2.04308 23.691 1.6875 22.8326 1.6875 21.9375V8.4375H11.8125V22.7812C11.8125 23.7313 12.1264 24.6071 12.6562 25.3125H5.0625ZM18.5625 22.7812C18.5625 23.4526 18.2958 24.0964 17.8211 24.5711C17.3464 25.0458 16.7026 25.3125 16.0312 25.3125C15.3599 25.3125 14.7161 25.0458 14.2414 24.5711C13.7667 24.0964 13.5 23.4526 13.5 22.7812V8.4375H18.5625V22.7812Z" fill="#041D42"/>
</svg>
