<svg width="470" height="1000" viewBox="0 0 470 1000" fill="none" xmlns="http://www.w3.org/2000/svg">
<path d="M375.923 8.82135C370.272 14.0541 364.621 18.4497 363.365 18.4497C358.969 18.4497 358.341 23.0546 362.318 27.4501C366.086 31.6363 366.295 33.9387 365.039 49.0092C363.574 64.2889 357.085 83.3363 353.108 83.3363C352.481 83.3363 350.178 81.8711 348.085 79.9873C342.852 75.3824 340.55 77.4756 338.875 88.7784C338.038 94.2205 334.898 102.174 331.549 106.57L325.689 114.733L324.433 109.5C322.34 100.918 307.688 97.1509 301.409 103.221C298.688 106.151 298.897 108.035 303.502 121.431C309.153 138.176 310.2 146.548 306.013 142.362C301.409 137.757 298.688 139.85 294.083 151.572C286.757 171.038 288.641 179.62 300.571 179.62C304.339 179.62 306.432 180.666 306.432 182.759C306.432 185.062 304.13 185.899 298.897 185.899C293.245 185.899 290.315 187.364 286.129 192.388L280.687 198.876L277.966 192.178C273.152 181.085 267.709 184.643 259.965 204.109C258.5 207.877 255.151 211.854 252.639 213.319C246.36 216.668 246.569 221.273 253.267 234.459C259.128 246.181 257.872 250.158 249.081 247.855C244.685 246.809 243.848 245.134 243.22 237.599C242.801 230.482 241.755 228.599 237.987 228.18C232.545 227.343 219.986 235.087 210.358 245.134C204.079 251.832 203.451 253.507 204.497 260.414C205.335 265.019 208.474 270.879 212.242 274.856C219.358 282.182 219.986 285.322 215.172 287.206C209.939 289.299 204.497 284.903 198.427 274.228C192.776 264.6 187.962 259.158 184.613 259.158C183.775 259.158 181.264 261.042 178.961 263.554C176.45 266.275 174.566 267.112 173.519 265.647C171.635 262.507 161.379 262.716 158.239 265.856C156.774 267.321 155.728 270.461 155.728 273.182C155.728 277.159 153.425 279.043 144.844 282.81C135.634 286.996 133.331 287.206 131.657 284.903C128.936 281.345 122.447 283.438 111.982 291.392C104.028 297.462 89.5853 298.927 84.7712 294.113C82.678 292.02 81.4222 292.648 78.0732 296.625C74.7242 300.811 74.3056 303.532 75.3521 314.626C76.608 327.394 76.3987 328.649 65.3052 352.511C58.8165 366.326 51.6999 382.233 49.1882 388.094L44.5834 398.978L49.6068 409.025C53.3744 416.351 55.0489 424.514 56.3048 438.12C59.0258 474.121 65.9331 505.309 75.3521 526.03C82.0501 540.892 83.306 547.589 80.3756 551.148C78.4918 553.45 78.4918 555.753 80.3756 561.613C83.5153 571.032 80.5849 580.661 71.5845 589.033C64.0493 596.15 46.4672 632.57 39.9785 654.548C36.6295 665.851 34.3271 670.246 30.9781 671.711C24.9081 673.804 17.7915 683.642 7.95384 702.899C0.837246 716.923 0 720.272 0 734.295C0 754.18 2.72105 781.391 5.4421 790.81C6.69797 794.787 11.3028 801.485 15.6984 805.671C20.5125 810.276 23.8615 815.299 23.8615 818.02C23.8615 820.741 25.536 827.858 27.4198 834.137C30.3502 843.347 30.5595 846.487 28.4664 852.138C20.9312 873.069 30.7688 911.373 51.9093 942.142L64.8866 961.399L86.027 971.864C97.5392 977.516 111.772 986.516 117.214 991.539C127.052 1000.12 128.099 1000.54 138.146 999.703C146.937 998.865 151.123 996.982 161.17 989.237C167.868 984.004 176.45 978.353 180.008 976.469C189.846 971.446 214.126 966.213 226.475 966.422C236.941 966.631 238.196 966.213 245.104 958.887C249.081 954.491 257.662 940.049 263.942 926.862C270.43 913.676 277.966 899.442 280.687 895.047C286.338 886.674 289.478 874.325 295.129 838.742C299.525 810.276 316.06 746.854 331.549 699.759C338.457 679.037 344.945 656.432 346.411 649.524C347.666 642.617 351.434 630.058 354.783 621.267C361.272 603.894 367.76 581.917 376.551 546.962C379.482 534.194 383.04 522.053 384.296 519.96C389.738 509.913 397.064 486.68 400.622 468.47C402.925 457.585 406.064 441.468 407.948 432.887C409.623 424.096 411.088 407.141 411.088 395.211C411.088 375.535 411.716 371.977 416.53 362.767C419.46 356.907 423.856 350.837 425.949 349.162C434.74 342.255 436.414 320.696 430.135 298.299C426.368 285.741 426.158 281.973 428.251 264.182C431.182 238.855 434.531 238.436 442.694 262.298C448.345 278.624 448.764 279.043 455.88 279.671C463.206 280.299 463.206 280.299 466.765 268.368C471.579 251.414 470.114 217.086 464.044 206.83C461.323 202.435 458.392 191.341 456.299 178.573C454.625 167.061 451.694 147.804 449.81 135.664C448.136 123.524 445.624 110.756 444.368 107.407C443.112 103.849 441.229 93.3832 440.391 83.9642C438.298 63.8703 432.438 49.6371 419.67 34.1481C414.855 28.2874 406.902 18.4497 402.087 12.1703C397.064 5.89099 391.413 0.448853 389.529 0.0302734C387.645 -0.388367 381.575 3.58856 375.923 8.82135ZM393.924 7.98407C396.436 10.2865 402.087 17.6124 406.483 24.3104C411.088 30.7991 416.949 38.125 419.46 40.4274C428.251 48.3812 434.321 64.0796 436.205 83.127C437.252 92.9646 438.926 103.849 440.182 107.198C441.438 110.338 443.95 122.687 445.624 134.408C452.113 178.364 456.927 202.435 461.113 210.807C464.672 217.505 465.509 223.156 465.509 239.483C465.509 264.391 462.578 275.903 456.09 275.903C452.531 275.903 450.648 272.973 445.415 258.53C439.554 242.204 438.926 241.367 433.065 241.367H426.786L424.902 264.182C423.437 282.182 423.646 289.09 425.949 296.625C427.623 301.858 428.879 313.998 428.879 323.417C428.879 339.115 428.461 340.999 423.228 346.441C420.297 349.581 415.274 356.907 412.344 362.558C407.529 371.768 406.902 375.117 406.902 395.001C406.902 433.933 391.622 503.843 380.528 516.821C378.854 518.495 377.598 522.263 377.598 524.775C377.598 532.31 359.388 598.034 351.853 618.337C347.876 628.593 343.689 643.036 342.224 650.571C340.759 658.106 334.898 677.781 329.247 694.526C314.386 739.11 294.92 814.88 289.687 848.37C286.547 868.255 283.617 880.814 280.268 887.093C277.547 892.326 269.803 907.815 262.895 921.629C256.197 935.444 247.616 950.305 243.848 954.701C237.359 961.817 236.103 962.445 225.638 962.445C219.358 962.445 206.381 964.329 196.962 966.841C182.52 970.399 176.868 973.12 163.054 983.376C148.402 994.261 145.053 995.935 136.89 995.935C128.727 995.935 126.006 994.679 115.749 985.888C109.261 980.237 96.074 972.283 86.4456 967.887C67.6076 959.515 65.0959 957.003 48.351 930.002C38.9319 914.931 29.9315 887.93 29.5129 873.488C29.3036 867.627 30.3502 859.045 32.0247 854.231C34.7457 846.068 34.5364 844.184 30.3502 831.207C28.0477 823.253 25.9546 814.88 25.9546 812.369C25.9546 809.648 23.4429 806.299 18.838 803.578C13.6052 800.229 11.3028 796.88 9.62833 790.182C6.27935 777.204 3.97692 754.389 3.97692 735.342C3.97692 719.225 4.39554 717.76 14.4425 698.712C22.6056 683.223 26.3732 678.2 31.606 675.898C37.4668 673.386 38.9319 670.874 43.5368 655.804C51.6999 629.64 64.4679 602.429 73.259 592.382C84.7712 579.405 87.4922 571.87 84.5618 561.823C82.8874 556.171 82.8874 553.032 84.3525 551.566C87.9108 548.008 87.2829 544.659 80.1663 528.751C70.7473 507.402 64.0493 478.307 60.7003 445.655C58.6072 424.514 56.7234 414.886 53.3744 408.188C47.9323 397.513 47.0951 400.234 67.8169 355.651C80.3756 328.44 80.5849 327.394 79.3291 315.463C77.6546 301.648 80.5849 294.741 85.8177 299.137C90.4226 302.904 106.749 299.346 117.633 292.439C126.633 286.787 127.68 286.578 129.982 289.718C132.285 292.857 133.331 292.648 142.541 288.462C155.937 282.182 159.914 278.415 159.914 272.345C159.914 267.112 165.356 265.856 172.473 269.624C175.612 271.298 177.496 270.879 180.845 267.531C186.078 262.298 187.962 263.344 193.613 274.019C199.683 286.369 204.916 290.555 213.288 290.555C217.265 290.555 220.614 289.718 220.614 288.671C220.614 287.624 221.242 285.322 221.87 283.647C222.498 281.764 219.986 277.159 215.591 272.135C206.172 261.879 205.544 253.716 213.916 246.181C223.545 237.39 232.964 231.529 236.941 232.366C240.499 232.994 240.918 233.831 241.336 244.297C241.545 249.111 242.592 250.576 247.825 251.414C261.43 254.135 264.57 248.274 257.244 234.041C254.313 228.389 252.011 222.738 252.011 221.691C252.011 220.645 254.732 216.877 258.081 213.528C261.639 210.179 264.988 204.737 265.826 201.388C266.663 198.039 268.337 194.062 269.384 192.597C272.942 187.992 277.338 195.318 275.035 201.807C271.477 210.807 276.71 209.133 285.919 198.458C293.664 189.457 295.966 187.992 301.618 188.411C309.99 189.039 311.456 187.573 309.781 180.666C308.734 176.271 307.269 175.433 301.199 175.433C294.292 175.433 293.873 175.015 293.873 168.317C293.873 164.34 295.548 157.433 297.85 152.618C300.99 145.083 302.036 144.455 304.339 147.176C305.804 148.851 308.316 150.316 309.781 150.316C314.386 150.316 313.339 137.548 307.479 121.64C304.548 113.477 303.083 106.779 304.339 105.523C305.385 104.477 309.572 104.477 313.549 105.105C320.037 106.361 321.084 107.407 321.084 112.221C321.084 123.943 324.224 123.733 333.224 110.756C338.038 104.058 342.015 96.5229 342.015 94.2205C342.015 91.9181 342.643 88.3597 343.271 86.476C344.527 83.5456 344.945 83.5456 348.713 86.8946C352.69 90.4529 352.899 90.4529 356.876 85.4294C363.155 77.2662 367.132 64.7076 368.807 47.1254C370.063 34.9853 369.853 29.9618 367.76 27.0314C365.458 23.4731 366.295 22.008 375.505 13.4262C381.156 8.19342 386.598 3.79785 387.645 3.79785C388.482 3.79785 391.413 5.68164 393.924 7.98407Z" fill="#041D42" fill-opacity="0.05"/>
</svg>
